<?xml version="1.0" standalone="no"?>
<!DOCTYPE svg PUBLIC "-//W3C//DTD SVG 20010904//EN"
 "http://www.w3.org/TR/2001/REC-SVG-20010904/DTD/svg10.dtd">
<svg version="1.0" xmlns="http://www.w3.org/2000/svg"
 width="300.000000pt" height="123.000000pt" viewBox="0 0 300.000000 123.000000"
 preserveAspectRatio="xMidYMid meet">
<metadata>
Created by potrace 1.10, written by Peter Selinger 2001-2011
</metadata>
<g transform="translate(0.000000,123.000000) scale(0.100000,-0.100000)"
fill="#6282ac" stroke="none">
<path d="M1990 1039 c-36 -22 -95 -70 -131 -108 -74 -76 -103 -137 -122 -253
-6 -38 -15 -68 -19 -68 -4 0 -8 7 -8 15 0 9 -9 15 -24 15 -17 0 -27 8 -34 29
l-10 28 -202 1 c-124 1 -199 -2 -195 -8 3 -5 46 -7 105 -3 72 4 100 3 100 -5
0 -7 13 -12 29 -12 49 0 54 -65 7 -102 l-21 -18 21 0 c35 0 54 31 54 88 l0 51
38 -6 c20 -3 40 -8 44 -12 4 -3 12 -36 17 -72 9 -55 8 -71 -5 -98 -9 -18 -13
-35 -10 -38 11 -11 36 20 36 44 0 13 5 33 10 44 7 13 7 19 0 19 -5 0 -10 9
-10 21 0 15 5 20 23 17 31 -4 37 -53 8 -61 -12 -3 -21 -10 -21 -16 0 -16 16
-14 34 4 22 22 26 19 26 -19 0 -19 11 -71 25 -115 38 -120 121 -214 256 -290
31 -17 59 -31 63 -31 4 0 -5 15 -19 34 -14 18 -37 66 -51 107 -22 65 -25 86
-21 167 4 91 4 94 -20 105 -38 17 -47 -2 -45 -95 2 -97 5 -131 13 -138 6 -6
59 -101 59 -106 0 -13 -25 0 -42 21 -11 14 -25 25 -32 25 -21 0 -47 36 -40 53
4 11 0 19 -11 23 -9 4 -14 12 -11 19 5 14 -32 53 -43 45 -3 -3 -7 11 -9 30 -2
19 -12 43 -22 52 -24 23 -37 169 -22 251 13 67 19 78 32 57 7 -10 8 -1 4 27
-6 44 18 109 37 97 6 -3 9 0 8 7 -4 23 13 53 21 39 12 -19 72 -2 68 18 -2 12
-11 16 -28 14 -14 -2 -23 -1 -19 2 11 11 94 65 96 62 2 -2 -4 -17 -13 -34 -8
-18 -12 -36 -9 -42 9 -14 -4 -52 -16 -45 -5 4 -9 2 -9 -4 0 -5 5 -13 10 -16 6
-3 10 -30 10 -59 0 -29 5 -67 11 -85 10 -28 9 -34 -7 -46 -22 -17 -11 -20 16
-5 13 7 28 7 45 0 23 -9 25 -13 15 -26 -10 -11 -10 -18 -2 -26 9 -9 12 -8 12
5 0 23 70 36 83 15 8 -12 17 -13 49 -4 28 8 44 7 58 -2 13 -8 21 -8 25 -1 8
11 39 4 74 -18 l25 -16 -35 -11 c-19 -6 -85 -11 -146 -11 -86 1 -113 -2 -113
-12 0 -9 -15 -13 -45 -13 -40 0 -58 -11 -37 -23 4 -3 77 1 162 8 85 7 268 21
405 30 364 23 371 25 175 45 -235 25 -540 58 -642 72 l-88 11 -6 35 c-18 93
15 250 67 323 36 51 26 51 -61 -2z m490 -434 c87 -4 88 -4 70 -15 -8 -5 -37
-9 -65 -8 -27 1 -60 -2 -73 -6 -18 -6 -24 -3 -31 16 -6 13 -10 17 -10 10 -1
-7 -6 -10 -12 -6 -19 11 13 25 41 18 14 -4 50 -8 80 -9z"/>
<path d="M1833 825 c-9 -10 -10 -21 -3 -40 6 -14 10 -28 9 -32 0 -4 4 -9 10
-11 6 -2 11 5 11 16 0 11 3 34 6 51 7 34 -10 42 -33 16z"/>
<path d="M1885 736 c-14 -21 -15 -29 -5 -41 7 -8 16 -13 20 -10 4 3 7 -3 6
-12 0 -9 5 -18 13 -21 9 -3 11 0 6 8 -4 7 -10 31 -12 53 -4 52 -8 54 -28 23z"/>
<path d="M194 716 c-60 -27 -94 -97 -80 -170 8 -41 67 -103 108 -111 69 -16
150 28 178 95 l13 31 22 -21 c12 -11 25 -20 31 -20 5 0 17 -14 27 -31 23 -42
31 -32 12 14 -8 20 -15 51 -15 69 0 47 18 105 33 106 118 9 136 9 131 0 -3 -5
2 -18 12 -29 13 -15 15 -22 6 -31 -7 -7 -12 -19 -12 -27 0 -9 6 -7 20 9 24 28
25 34 5 50 -19 16 -19 30 0 30 8 0 15 -4 15 -9 0 -5 8 -8 18 -7 14 1 17 -7 15
-42 -1 -23 -9 -56 -17 -73 -16 -31 -16 -31 7 -16 17 11 24 29 31 83 l8 69 39
1 38 1 -14 -27 c-8 -15 -11 -37 -8 -50 4 -16 3 -21 -5 -16 -7 4 -12 13 -12 21
0 21 -19 28 -26 10 -4 -9 1 -24 11 -35 9 -10 23 -40 31 -67 l14 -48 -4 51 c-5
55 6 120 23 137 13 13 41 -8 41 -30 0 -12 -3 -13 -13 -4 -8 6 -17 8 -20 4 -10
-9 -9 -63 2 -100 6 -19 5 -35 -1 -41 -6 -6 1 -11 22 -14 35 -5 53 10 21 19
-20 5 -41 54 -41 96 0 26 23 15 30 -14 5 -18 8 -10 13 31 6 45 4 57 -9 67 -26
19 -102 27 -144 14 -45 -13 -53 -14 -46 -2 3 5 -39 9 -94 10 l-101 2 -17 -31
c-9 -16 -25 -30 -35 -30 -10 0 -20 -7 -23 -15 -8 -20 -34 -19 -34 1 0 27 -41
75 -76 90 -42 17 -90 17 -130 0z m111 -30 c18 -8 35 -12 38 -10 2 2 12 -6 23
-18 10 -12 13 -18 5 -13 -10 6 -12 2 -7 -14 3 -11 9 -30 12 -41 15 -52 -58
-124 -123 -122 -67 3 -126 77 -107 134 4 13 8 32 9 43 2 11 8 19 14 18 6 -2
11 2 11 7 0 28 74 37 125 16z m163 -109 c3 -23 0 -28 -15 -25 -11 2 -19 14
-21 31 -3 23 0 28 15 25 11 -2 19 -14 21 -31z"/>
<path d="M904 693 c11 -11 266 -12 266 -2 0 5 -61 9 -137 9 -75 0 -133 -3
-129 -7z"/>
<path d="M1185 670 c-3 -16 -16 -41 -27 -56 -21 -26 -21 -27 -3 -40 20 -15 15
-17 -23 -14 -16 1 -25 -5 -29 -19 -3 -12 -12 -20 -21 -19 -34 6 -21 -21 15
-31 57 -16 86 -13 46 5 -18 8 -33 18 -33 24 0 12 37 32 42 22 5 -11 98 -56
104 -50 3 3 -10 15 -29 27 -19 12 -42 32 -51 46 -15 23 -15 26 15 69 17 24 28
49 25 55 -12 19 -24 12 -31 -19z"/>
<path d="M992 664 c-12 -8 -22 -24 -22 -34 0 -22 -16 -35 -25 -20 -5 8 -11 7
-21 -1 -21 -17 -17 -39 8 -39 13 0 39 -19 66 -47 36 -39 43 -43 37 -23 -11 35
-36 84 -47 91 -15 10 11 52 28 45 9 -3 14 1 14 14 0 27 -13 32 -38 14z"/>
<path d="M1080 665 c-10 -12 -10 -18 0 -30 7 -9 10 -25 6 -41 -8 -29 10 -30
28 -1 8 12 7 23 -2 38 -12 19 -12 20 10 14 13 -4 21 -6 18 -4 -3 2 -14 12 -26
22 -19 16 -23 16 -34 2z"/>
<path d="M1397 673 c-13 -13 -7 -32 8 -27 10 4 15 0 15 -15 0 -14 -12 -29 -35
-42 -19 -12 -35 -26 -35 -32 0 -7 4 -7 12 1 19 19 30 14 27 -10 -4 -29 8 -48
29 -48 16 1 16 2 0 14 -19 14 -24 61 -9 71 5 3 17 -2 25 -11 18 -17 23 0 7 25
-6 9 -5 21 2 32 9 15 8 21 -8 33 -23 17 -29 19 -38 9z"/>
<path d="M575 656 c-21 -15 -30 -78 -16 -117 8 -22 8 -36 1 -43 -22 -22 -1
-36 28 -17 10 6 9 14 -5 39 -18 32 -10 59 10 31 7 -9 18 -14 25 -12 7 3 15 -7
18 -25 5 -25 11 -30 38 -30 17 0 46 -3 64 -7 45 -10 41 9 -5 23 -26 8 -41 8
-50 1 -10 -9 -15 -5 -23 15 -5 15 -17 29 -25 32 -19 8 -19 28 0 44 24 20 18
47 -14 63 -23 12 -34 12 -46 3z m29 -22 c19 -7 19 -14 6 -48 -14 -37 -40 -23
-40 20 0 34 6 39 34 28z"/>
<path d="M1322 661 c-14 -9 -5 -71 10 -71 6 0 8 11 6 25 -6 28 3 32 22 10 13
-16 30 -20 29 -7 -1 15 -56 50 -67 43z"/>
<path d="M1212 640 c-17 -27 -16 -28 20 -26 28 1 35 -4 50 -34 17 -34 18 -34
18 -8 0 40 -10 57 -41 73 -35 19 -32 19 -47 -5z"/>
<path d="M1780 640 c0 -6 5 -8 11 -4 8 5 10 -1 5 -19 -3 -14 -2 -28 2 -31 4
-2 9 5 9 16 1 11 9 25 18 32 14 10 12 12 -14 14 -17 1 -31 -3 -31 -8z"/>
<path d="M1990 640 c-8 -5 -24 -12 -35 -15 -17 -6 -15 -9 15 -19 30 -9 36 -9
39 4 2 8 8 21 13 28 12 14 -8 16 -32 2z"/>
<path d="M1866 622 c-3 -5 3 -17 14 -27 17 -15 20 -16 20 -3 0 19 -26 42 -34
30z"/>
<path d="M2243 603 c-7 -2 -13 -12 -13 -20 0 -13 2 -13 17 -2 9 8 19 13 22 11
3 -2 7 1 9 7 4 11 -13 13 -35 4z"/>
<path d="M1225 556 c-18 -13 -17 -13 8 -13 16 0 27 5 27 13 0 8 -4 14 -8 14
-5 0 -17 -6 -27 -14z"/>
<path d="M1314 548 c-9 -14 43 -61 57 -52 6 3 2 12 -10 21 -12 8 -21 21 -21
29 0 17 -16 19 -26 2z"/>
<path d="M1925 541 c-6 -11 9 -23 19 -14 9 9 7 23 -3 23 -6 0 -12 -4 -16 -9z"/>
<path d="M1447 533 c-13 -13 -7 -23 14 -23 12 0 23 -8 26 -20 6 -21 12 -24 37
-14 22 8 20 19 -6 36 -31 20 -63 30 -71 21z"/>
<path d="M930 514 c0 -17 22 -14 28 4 2 7 -3 12 -12 12 -9 0 -16 -7 -16 -16z"/>
<path d="M1880 509 c0 -5 -4 -7 -10 -4 -6 4 -7 -1 -3 -11 4 -11 8 -13 11 -6 2
7 8 10 13 7 5 -4 6 1 3 9 -7 18 -14 21 -14 5z"/>
<path d="M1860 355 c0 -9 9 -15 21 -15 18 0 19 2 9 15 -7 8 -16 15 -21 15 -5
0 -9 -7 -9 -15z"/>
</g>
</svg>
